<?xml version="1.0" standalone="no"?><svg xmlns:xlink="http://www.w3.org/1999/xlink" xmlns="http://www.w3.org/2000/svg" viewBox="0 0 1000 545.4610089806655" preserveAspectRatio="xMaxYMax slice"><g transform="scale(1.1109185518954492)"><rect x="0" y="0" width="900.1666666666666" height="491" fill="#ffffff"/><rect x="0" y="0" width="81.83333333333333" height="81.83333333333333" fill="#ffffff"/><rect x="0" y="0" width="40.92" height="40.92" fill="#7687b8"/><polygon points="40.92,0 40.92,40.92 0,40.92" fill="#a7b2d1"/><rect x="40.92" y="0" width="40.92" height="40.92" fill="#3c66dd"/><polygon points="40.92,0 81.84,40.92 40.92,40.92" fill="#dadfec"/><rect x="0" y="40.92" width="40.92" height="40.92" fill="#c3d0f5"/><polygon points="0,40.92 40.92,40.92 0,81.84" fill="#839eea"/><rect x="40.92" y="40.92" width="40.92" height="40.92" fill="#314b94"/><polygon points="40.92,40.92 81.84,40.92 81.84,81.84" fill="#dbe0ec"/><rect x="81.83" y="0" width="81.83" height="81.83" fill="#2957da"/><path d="M 81.83 81.83 A 81.83 81.83 0 0 0 163.66 0 L 81.83 0" fill="#8392bf"/><rect x="163.67" y="0" width="81.83" height="81.83" fill="#9eb3ee"/><polygon points="163.67,0 245.5,0 245.5,81.83" fill="#e3e9fa"/><rect x="245.5" y="0" width="81.83333333333333" height="81.83333333333333" fill="#ffffff"/><rect x="245.5" y="0" width="40.92" height="40.92" fill="#4e74e0"/><polygon points="286.42,0 286.42,40.92 245.5,40.92" fill="#7492e7"/><rect x="286.42" y="0" width="40.92" height="40.92" fill="#a1b5ef"/><polygon points="286.42,0 327.34000000000003,0 286.42,40.92" fill="#fdfdfe"/><rect x="245.5" y="40.92" width="40.92" height="40.92" fill="#5e72ab"/><polygon points="245.5,40.92 286.42,40.92 286.42,81.84" fill="#849fea"/><rect x="286.42" y="40.92" width="40.92" height="40.92" fill="#5c70aa"/><polygon points="286.42,40.92 327.34000000000003,81.84 286.42,81.84" fill="#28438f"/><rect x="327.3333333333333" y="0" width="81.83333333333333" height="81.83333333333333" fill="#ffffff"/><rect x="327.33" y="0" width="40.92" height="40.92" fill="#7183b5"/><polygon points="368.25,0 368.25,40.92 327.33,40.92" fill="#a8b3d2"/><rect x="368.25" y="0" width="40.92" height="40.92" fill="#305ddb"/><polygon points="368.25,0 409.17,40.92 368.25,40.92" fill="#e9eefb"/><rect x="327.33" y="40.92" width="40.92" height="40.92" fill="#6889e5"/><polygon points="327.33,40.92 368.25,40.92 368.25,81.84" fill="#6679af"/><rect x="368.25" y="40.92" width="40.92" height="40.92" fill="#c4d1f5"/><polygon points="368.25,40.92 409.17,40.92 368.25,81.84" fill="#597de2"/><rect x="409.16666666666663" y="0" width="81.83333333333333" height="81.83333333333333" fill="#ffffff"/><rect x="409.17" y="0" width="40.92" height="40.92" fill="#d0d6e7"/><polygon points="450.09000000000003,0 450.09000000000003,40.92 409.17,40.92" fill="#c0cef4"/><rect x="450.08" y="0" width="40.92" height="40.92" fill="#8a99c2"/><polygon points="450.08,0 491,40.92 450.08,40.92" fill="#f2f5fd"/><rect x="409.17" y="40.92" width="40.92" height="40.92" fill="#cdd8f6"/><polygon points="409.17,40.92 450.09000000000003,40.92 409.17,81.84" fill="#8695c0"/><rect x="450.08" y="40.92" width="40.92" height="40.92" fill="#6e8de6"/><polygon points="450.08,40.92 491,40.92 491,81.84" fill="#314a94"/><rect x="491" y="0" width="81.83" height="81.83" fill="#7593e7"/><polygon points="491,0 572.83,0 572.83,81.83" fill="#e7ecfb"/><rect x="572.8333333333333" y="0" width="81.83333333333333" height="81.83333333333333" fill="#ffffff"/><rect x="572.83" y="0" width="40.92" height="40.92" fill="#7996e8"/><path d="M 572.83 40.92 A 40.92 40.92 0 0 1  613.75 0 L 613.75 40.92" fill="#a5b8ef"/><rect x="613.75" y="0" width="40.92" height="40.92" fill="#acbef1"/><path d="M 613.75 0 A 40.92 40.92 0 0 1 654.67 40.92 L 613.75 40.92" fill="#3863dd"/><rect x="572.83" y="40.92" width="40.92" height="40.92" fill="#99a6ca"/><path d="M 572.83 40.92 A 40.92 40.92 0 0 0 613.75 81.84 L 613.75 40.92" fill="#a3b7ef"/><rect x="613.75" y="40.92" width="40.92" height="40.92" fill="#6284e4"/><path d="M 613.75 81.84 A 40.92 40.92 0 0 0 654.67 40.92 L 613.75 40.92" fill="#beccf4"/><rect x="654.67" y="0" width="81.83" height="81.83" fill="#fafbfc"/><polygon points="654.67,0 736.5,81.83 654.67,81.83" fill="#546aa6"/><rect x="736.5" y="0" width="81.83333333333333" height="81.83333333333333" fill="#ffffff"/><rect x="736.5" y="0" width="40.92" height="40.92" fill="#99afed"/><path d="M 736.5 40.92 A 40.92 40.92 0 0 1 777.42 0 L 777.42 10.23 A 30.69 30.69 0 0 0 746.73 40.92" fill="#8392be"/><rect x="777.42" y="0" width="40.92" height="40.92" fill="#9bb1ee"/><path d="M 777.42 0 A 40.92 40.92 0 0 1 818.3399999999999 40.92 L 808.11 40.92 A 30.69 30.69 0 0 0 777.42 10.23" fill="#a8b3d2"/><rect x="736.5" y="40.92" width="40.92" height="40.92" fill="#edeff5"/><path d="M 736.5 40.92 A 40.92 40.92 0 0 0 777.42 81.84 L 777.42 71.61 A 30.69 30.69 0 0 1 746.73 40.92" fill="#9bb1ee"/><rect x="777.42" y="40.92" width="40.92" height="40.92" fill="#5b6fa9"/><path d="M 777.42 81.84 A 40.92 40.92 0 0 0 818.3399999999999 40.92 L 808.11 40.92 A 30.69 30.69 0 0 1 777.42 71.61" fill="#4c73e0"/><rect x="818.33" y="0" width="81.83" height="81.83" fill="#5166a4"/><path d="M 818.33 81.83 A 81.83 81.83 0 0 1  900.1600000000001 0 L 818.33 81.83 A 81.83 81.83 0 0 0 900.1600000000001 0" fill="#a6b9f0"/><rect x="0" y="81.83333333333333" width="81.83333333333333" height="81.83333333333333" fill="#ffffff"/><rect x="0" y="81.83" width="40.92" height="40.92" fill="#d5def8"/><path d="M 0 122.75 A 40.92 40.92 0 0 0 40.92 81.83 L 0 81.83" fill="#bdc5dd"/><rect x="40.92" y="81.83" width="40.92" height="40.92" fill="#b2bcd7"/><path d="M 40.92 81.83 A 40.92 40.92 0 0 0 81.84 122.75 L 81.84 81.83" fill="#2050d8"/><rect x="0" y="122.75" width="40.92" height="40.92" fill="#b7c0d9"/><path d="M 0 122.75 A 40.92 40.92 0 0 1 40.92 163.67000000000002 L 0 163.67000000000002" fill="#cfd9f7"/><rect x="40.92" y="122.75" width="40.92" height="40.92" fill="#5c80e3"/><path d="M 40.92 163.67000000000002 A 40.92 40.92 0 0 1  81.84 122.75 L 81.84 163.67000000000002" fill="#8fa8ec"/><rect x="81.83333333333333" y="81.83333333333333" width="81.83333333333333" height="81.83333333333333" fill="#ffffff"/><rect x="81.83" y="81.83" width="40.92" height="40.92" fill="#28438f"/><circle cx="102.28999999999999" cy="102.28999999999999" r="20.46" fill="#3a64dd"/><rect x="122.75" y="81.83" width="40.92" height="40.92" fill="#eaedf4"/><rect x="122.75" y="81.83" width="40.92" height="40.92" fill="#bdccf4"/><rect x="81.83" y="122.75" width="40.92" height="40.92" fill="#b9c8f3"/><circle cx="102.28999999999999" cy="143.21" r="20.46" fill="#8ca5eb"/><rect x="122.75" y="122.75" width="40.92" height="40.92" fill="#e8edfb"/><rect x="122.75" y="122.75" width="40.92" height="40.92" fill="#ffffff"/><rect x="163.66666666666666" y="81.83333333333333" width="81.83333333333333" height="81.83333333333333" fill="#ffffff"/><rect x="163.67" y="81.83" width="40.92" height="40.92" fill="#587ce2"/><polygon points="204.58999999999997,81.83 204.58999999999997,122.75 163.67,122.75" fill="#8998c2"/><rect x="204.58" y="81.83" width="40.92" height="40.92" fill="#385198"/><polygon points="204.58,81.83 245.5,122.75 204.58,122.75" fill="#c1cff4"/><rect x="163.67" y="122.75" width="40.92" height="40.92" fill="#f6f7fb"/><polygon points="163.67,122.75 204.58999999999997,122.75 163.67,163.67000000000002" fill="#7b8bba"/><rect x="204.58" y="122.75" width="40.92" height="40.92" fill="#ebeef5"/><polygon points="204.58,122.75 245.5,122.75 245.5,163.67000000000002" fill="#ecf0fc"/><rect x="245.5" y="81.83333333333333" width="81.83333333333333" height="81.83333333333333" fill="#ffffff"/><rect x="245.5" y="81.83" width="40.92" height="40.92" fill="#98afed"/><path d="M 245.5 122.75 A 40.92 40.92 0 0 1  286.42 81.83 L 286.42 122.75" fill="#7989b9"/><rect x="286.42" y="81.83" width="40.92" height="40.92" fill="#e9eefb"/><path d="M 286.42 81.83 A 40.92 40.92 0 0 1 327.34000000000003 122.75 L 286.42 122.75" fill="#7888b9"/><rect x="245.5" y="122.75" width="40.92" height="40.92" fill="#4f65a3"/><path d="M 245.5 122.75 A 40.92 40.92 0 0 0 286.42 163.67000000000002 L 286.42 122.75" fill="#8897c1"/><rect x="286.42" y="122.75" width="40.92" height="40.92" fill="#fdfeff"/><path d="M 286.42 163.67000000000002 A 40.92 40.92 0 0 0 327.34000000000003 122.75 L 286.42 122.75" fill="#d9deeb"/><rect x="327.3333333333333" y="81.83333333333333" width="81.83333333333333" height="81.83333333333333" fill="#ffffff"/><rect x="327.33" y="81.83" width="40.92" height="40.92" fill="#6d7fb3"/><circle cx="347.78999999999996" cy="102.28999999999999" r="20.46" fill="#4d63a2"/><rect x="368.25" y="81.83" width="40.92" height="40.92" fill="#4870df"/><rect x="368.25" y="81.83" width="40.92" height="40.92" fill="#6175ad"/><rect x="327.33" y="122.75" width="40.92" height="40.92" fill="#1d4ed8"/><circle cx="347.78999999999996" cy="143.21" r="20.46" fill="#aab5d3"/><rect x="368.25" y="122.75" width="40.92" height="40.92" fill="#fcfdff"/><rect x="368.25" y="122.75" width="40.92" height="40.92" fill="#eaecf4"/><rect x="409.17" y="81.83" width="81.83" height="81.83" fill="#7f9be9"/><rect x="409.17" y="81.83" width="81.83" height="81.83" fill="#99a6ca"/><rect x="491" y="81.83" width="81.83" height="81.83" fill="#adb8d5"/><path d="M 491 81.83 A 81.83 81.83 0 0 1 572.83 163.66 L 491 163.66" fill="#e9ebf3"/><rect x="572.8333333333333" y="81.83333333333333" width="81.83333333333333" height="81.83333333333333" fill="#ffffff"/><rect x="572.83" y="81.83" width="40.92" height="40.92" fill="#d6dff8"/><path d="M 572.83 122.75 A 40.92 40.92 0 0 0 613.75 81.83 L 572.83 81.83" fill="#93abec"/><rect x="613.75" y="81.83" width="40.92" height="40.92" fill="#6385e4"/><path d="M 613.75 81.83 A 40.92 40.92 0 0 0 654.67 122.75 L 654.67 81.83" fill="#f8f9fb"/><rect x="572.83" y="122.75" width="40.92" height="40.92" fill="#3e68de"/><path d="M 572.83 122.75 A 40.92 40.92 0 0 1 613.75 163.67000000000002 L 572.83 163.67000000000002" fill="#a9bbf0"/><rect x="613.75" y="122.75" width="40.92" height="40.92" fill="#edeff6"/><path d="M 613.75 163.67000000000002 A 40.92 40.92 0 0 1  654.67 122.75 L 654.67 163.67000000000002" fill="#93aaec"/><rect x="654.67" y="81.83" width="81.83" height="81.83" fill="#87a1ea"/><polygon points="654.67,81.83 736.5,81.83 654.67,163.66" fill="#4b62a2"/><rect x="736.5" y="81.83333333333333" width="81.83333333333333" height="81.83333333333333" fill="#ffffff"/><rect x="736.5" y="81.83" width="40.92" height="40.92" fill="#6376ae"/><polygon points="777.42,81.83 777.42,122.75 736.5,122.75" fill="#3c5499"/><rect x="777.42" y="81.83" width="40.92" height="40.92" fill="#5479e2"/><polygon points="777.42,81.83 818.3399999999999,81.83 777.42,122.75" fill="#819ce9"/><rect x="736.5" y="122.75" width="40.92" height="40.92" fill="#ebedf5"/><polygon points="736.5,122.75 777.42,122.75 777.42,163.67000000000002" fill="#c3d0f5"/><rect x="777.42" y="122.75" width="40.92" height="40.92" fill="#566ba7"/><polygon points="777.42,122.75 818.3399999999999,163.67000000000002 777.42,163.67000000000002" fill="#576ca7"/><rect x="818.33" y="81.83" width="81.83" height="81.83" fill="#2857da"/><rect x="818.33" y="81.83" width="81.83" height="81.83" fill="#6183e4"/><rect x="0" y="163.67" width="81.83" height="81.83" fill="#2e5cdb"/><path d="M 0 245.5 A 81.83 81.83 0 0 1  81.83 163.67 L 81.83 245.5" fill="#3460dc"/><rect x="81.83333333333333" y="163.66666666666666" width="81.83333333333333" height="81.83333333333333" fill="#ffffff"/><rect x="81.83" y="163.67" width="40.92" height="40.92" fill="#698ae5"/><polygon points="122.75,163.67 122.75,204.58999999999997 81.83,204.58999999999997" fill="#2151d9"/><rect x="122.75" y="163.67" width="40.92" height="40.92" fill="#6f81b4"/><polygon points="122.75,163.67 163.67000000000002,163.67 122.75,204.58999999999997" fill="#fafbfe"/><rect x="81.83" y="204.58" width="40.92" height="40.92" fill="#919fc6"/><polygon points="81.83,204.58 122.75,204.58 122.75,245.5" fill="#5e81e3"/><rect x="122.75" y="204.58" width="40.92" height="40.92" fill="#2957da"/><polygon points="122.75,204.58 163.67000000000002,245.5 122.75,245.5" fill="#b0c1f1"/><rect x="163.66666666666666" y="163.66666666666666" width="81.83333333333333" height="81.83333333333333" fill="#ffffff"/><rect x="163.67" y="163.67" width="40.92" height="40.92" fill="#6788e5"/><polygon points="204.58999999999997,163.67 204.58999999999997,204.58999999999997 163.67,204.58999999999997" fill="#304a93"/><rect x="204.58" y="163.67" width="40.92" height="40.92" fill="#e3e9fa"/><polygon points="204.58,163.67 245.5,163.67 204.58,204.58999999999997" fill="#42599d"/><rect x="163.67" y="204.58" width="40.92" height="40.92" fill="#e0e6fa"/><polygon points="163.67,204.58 204.58999999999997,204.58 204.58999999999997,245.5" fill="#6376ae"/><rect x="204.58" y="204.58" width="40.92" height="40.92" fill="#354e96"/><polygon points="204.58,204.58 245.5,245.5 204.58,245.5" fill="#7d9ae9"/><rect x="245.5" y="163.67" width="81.83" height="81.83" fill="#d5def8"/><rect x="245.5" y="163.67" width="81.83" height="81.83" fill="#bac9f3"/><rect x="327.3333333333333" y="163.66666666666666" width="81.83333333333333" height="81.83333333333333" fill="#ffffff"/><rect x="327.33" y="163.67" width="40.92" height="40.92" fill="#dee2ee"/><polygon points="368.25,163.67 368.25,204.58999999999997 327.33,204.58999999999997" fill="#8796c1"/><rect x="368.25" y="163.67" width="40.92" height="40.92" fill="#bfc7de"/><polygon points="368.25,163.67 409.17,204.58999999999997 368.25,204.58999999999997" fill="#dfe6f9"/><rect x="327.33" y="204.58" width="40.92" height="40.92" fill="#556ba7"/><polygon points="327.33,204.58 368.25,204.58 327.33,245.5" fill="#cdd3e5"/><rect x="368.25" y="204.58" width="40.92" height="40.92" fill="#afb9d5"/><polygon points="368.25,204.58 409.17,204.58 409.17,245.5" fill="#ccd7f6"/><rect x="409.17" y="163.67" width="81.83" height="81.83" fill="#89a3eb"/><path d="M 409.17 245.5 A 81.83 81.83 0 0 1  491 163.67 L 409.17 245.5 A 81.83 81.83 0 0 0 491 163.67" fill="#4d73e0"/><rect x="491" y="163.67" width="81.83" height="81.83" fill="#2353d9"/><path d="M 491 163.67 A 81.83 81.83 0 0 1 572.83 245.5 L 491 245.5" fill="#eaedf4"/><rect x="572.83" y="163.67" width="81.83" height="81.83" fill="#6384e4"/><rect x="572.83" y="163.67" width="81.83" height="81.83" fill="#8f9dc5"/><rect x="654.6666666666666" y="163.66666666666666" width="81.83333333333333" height="81.83333333333333" fill="#ffffff"/><rect x="654.67" y="163.67" width="40.92" height="40.92" fill="#5b7fe3"/><path d="M 654.67 204.58999999999997 A 40.92 40.92 0 0 1  695.5899999999999 163.67 L 695.5899999999999 204.58999999999997" fill="#a8b3d2"/><rect x="695.58" y="163.67" width="40.92" height="40.92" fill="#a7baf0"/><path d="M 695.58 163.67 A 40.92 40.92 0 0 1 736.5 204.58999999999997 L 695.58 204.58999999999997" fill="#ebeef5"/><rect x="654.67" y="204.58" width="40.92" height="40.92" fill="#c6d2f5"/><path d="M 654.67 204.58 A 40.92 40.92 0 0 0 695.5899999999999 245.5 L 695.5899999999999 204.58" fill="#d5def8"/><rect x="695.58" y="204.58" width="40.92" height="40.92" fill="#304993"/><path d="M 695.58 245.5 A 40.92 40.92 0 0 0 736.5 204.58 L 695.58 204.58" fill="#546aa6"/><rect x="736.5" y="163.66666666666666" width="81.83333333333333" height="81.83333333333333" fill="#ffffff"/><rect x="736.5" y="163.67" width="40.92" height="40.92" fill="#567be2"/><path d="M 736.5 204.58999999999997 A 40.92 40.92 0 0 1  777.42 163.67 L 777.42 204.58999999999997" fill="#5e81e3"/><rect x="777.42" y="163.67" width="40.92" height="40.92" fill="#3b66dd"/><path d="M 777.42 163.67 A 40.92 40.92 0 0 1 818.3399999999999 204.58999999999997 L 777.42 204.58999999999997" fill="#b8c7f3"/><rect x="736.5" y="204.58" width="40.92" height="40.92" fill="#6174ad"/><path d="M 736.5 204.58 A 40.92 40.92 0 0 0 777.42 245.5 L 777.42 204.58" fill="#acbef1"/><rect x="777.42" y="204.58" width="40.92" height="40.92" fill="#e1e7fa"/><path d="M 777.42 245.5 A 40.92 40.92 0 0 0 818.3399999999999 204.58 L 777.42 204.58" fill="#9ca9cc"/><rect x="818.33" y="163.67" width="81.83" height="81.83" fill="#eceef5"/><rect x="818.33" y="163.67" width="81.83" height="81.83" fill="#8da5eb"/><rect x="0" y="245.5" width="81.83" height="81.83" fill="#7c99e8"/><rect x="0" y="245.5" width="81.83" height="81.83" fill="#5277e1"/><rect x="81.83" y="245.5" width="81.83" height="81.83" fill="#a3afcf"/><path d="M 81.83 245.5 A 81.83 81.83 0 0 0 163.66 327.33 L 163.66 245.5" fill="#a4afcf"/><rect x="163.67" y="245.5" width="81.83" height="81.83" fill="#304a94"/><polygon points="163.67,245.5 245.5,245.5 163.67,327.33" fill="#6377ae"/><rect x="245.5" y="245.5" width="81.83" height="81.83" fill="#c2cff5"/><polygon points="245.5,245.5 327.33,245.5 327.33,327.33" fill="#9eaacc"/><rect x="327.3333333333333" y="245.5" width="81.83333333333333" height="81.83333333333333" fill="#ffffff"/><rect x="327.33" y="245.5" width="40.92" height="40.92" fill="#233e8d"/><polygon points="368.25,245.5 368.25,286.42 327.33,286.42" fill="#c0cdf4"/><rect x="368.25" y="245.5" width="40.92" height="40.92" fill="#d9e1f8"/><polygon points="368.25,245.5 409.17,245.5 368.25,286.42" fill="#bcc5dc"/><rect x="327.33" y="286.42" width="40.92" height="40.92" fill="#f9fafe"/><polygon points="327.33,286.42 368.25,286.42 368.25,327.34000000000003" fill="#d5def8"/><rect x="368.25" y="286.42" width="40.92" height="40.92" fill="#6074ac"/><polygon points="368.25,286.42 409.17,327.34000000000003 368.25,327.34000000000003" fill="#475e9f"/><rect x="409.16666666666663" y="245.5" width="81.83333333333333" height="81.83333333333333" fill="#ffffff"/><rect x="409.17" y="245.5" width="40.92" height="40.92" fill="#334c95"/><circle cx="429.63" cy="265.96" r="20.46" fill="#b0c1f1"/><rect x="450.08" y="245.5" width="40.92" height="40.92" fill="#93aaec"/><rect x="450.08" y="245.5" width="40.92" height="40.92" fill="#6376ae"/><rect x="409.17" y="286.42" width="40.92" height="40.92" fill="#3d67dd"/><circle cx="429.63" cy="306.88" r="20.46" fill="#25408d"/><rect x="450.08" y="286.42" width="40.92" height="40.92" fill="#8d9bc4"/><rect x="450.08" y="286.42" width="40.92" height="40.92" fill="#9ba8cb"/><rect x="491" y="245.5" width="81.83" height="81.83" fill="#7788b8"/><polygon points="491,245.5 572.83,245.5 491,327.33" fill="#1f50d8"/><rect x="572.8333333333333" y="245.5" width="81.83333333333333" height="81.83333333333333" fill="#ffffff"/><rect x="572.83" y="245.5" width="40.92" height="40.92" fill="#a2aecf"/><path d="M 572.83 245.5 A 40.92 40.92 0 0 1 613.75 286.42 L 572.83 286.42" fill="#7284b6"/><rect x="613.75" y="245.5" width="40.92" height="40.92" fill="#a3b7ef"/><path d="M 613.75 286.42 A 40.92 40.92 0 0 1  654.67 245.5 L 654.67 286.42" fill="#5a7ee2"/><rect x="572.83" y="286.42" width="40.92" height="40.92" fill="#c8cfe3"/><path d="M 572.83 327.34000000000003 A 40.92 40.92 0 0 0 613.75 286.42 L 572.83 286.42" fill="#375097"/><rect x="613.75" y="286.42" width="40.92" height="40.92" fill="#97a4c9"/><path d="M 613.75 286.42 A 40.92 40.92 0 0 0 654.67 327.34000000000003 L 654.67 286.42" fill="#94a1c7"/><rect x="654.6666666666666" y="245.5" width="81.83333333333333" height="81.83333333333333" fill="#ffffff"/><rect x="654.67" y="245.5" width="40.92" height="40.92" fill="#f3f6fd"/><path d="M 654.67 286.42 A 40.92 40.92 0 0 1  695.5899999999999 245.5 L 695.5899999999999 286.42" fill="#f6f8fd"/><rect x="695.58" y="245.5" width="40.92" height="40.92" fill="#bdc5dd"/><path d="M 695.58 245.5 A 40.92 40.92 0 0 1 736.5 286.42 L 695.58 286.42" fill="#4b72e0"/><rect x="654.67" y="286.42" width="40.92" height="40.92" fill="#f4f6fd"/><path d="M 654.67 286.42 A 40.92 40.92 0 0 0 695.5899999999999 327.34000000000003 L 695.5899999999999 286.42" fill="#f4f7fd"/><rect x="695.58" y="286.42" width="40.92" height="40.92" fill="#314b94"/><path d="M 695.58 327.34000000000003 A 40.92 40.92 0 0 0 736.5 286.42 L 695.58 286.42" fill="#5469a6"/><rect x="736.5" y="245.5" width="81.83" height="81.83" fill="#2d5adb"/><rect x="736.5" y="245.5" width="81.83" height="81.83" fill="#1d4ed8"/><rect x="818.33" y="245.5" width="81.83" height="81.83" fill="#26418e"/><path d="M 818.33 245.5 A 81.83 81.83 0 0 1  900.1600000000001 327.33 L 818.33 245.5 A 81.83 81.83 0 0 0 900.1600000000001 327.33" fill="#f0f3fc"/><rect x="0" y="327.3333333333333" width="81.83333333333333" height="81.83333333333333" fill="#ffffff"/><rect x="0" y="327.33" width="40.92" height="40.92" fill="#93abec"/><path d="M 0 327.33 A 40.92 40.92 0 0 1 40.92 368.25 L 0 368.25" fill="#7183b5"/><rect x="40.92" y="327.33" width="40.92" height="40.92" fill="#cdd3e5"/><path d="M 40.92 368.25 A 40.92 40.92 0 0 1  81.84 327.33 L 81.84 368.25" fill="#e8edfb"/><rect x="0" y="368.25" width="40.92" height="40.92" fill="#7788b8"/><path d="M 0 409.17 A 40.92 40.92 0 0 0 40.92 368.25 L 0 368.25" fill="#92a0c6"/><rect x="40.92" y="368.25" width="40.92" height="40.92" fill="#435a9d"/><path d="M 40.92 368.25 A 40.92 40.92 0 0 0 81.84 409.17 L 81.84 368.25" fill="#334d95"/><rect x="81.83" y="327.33" width="81.83" height="81.83" fill="#dfe3ee"/><path d="M 81.83 327.33 A 81.83 81.83 0 0 0 163.66 409.15999999999997 L 163.66 327.33" fill="#a9b4d2"/><rect x="163.67" y="327.33" width="81.83" height="81.83" fill="#8d9bc4"/><rect x="163.67" y="327.33" width="81.83" height="81.83" fill="#c8cfe2"/><rect x="245.5" y="327.33" width="81.83" height="81.83" fill="#435b9d"/><rect x="245.5" y="327.33" width="81.83" height="81.83" fill="#ebeef5"/><rect x="327.3333333333333" y="327.3333333333333" width="81.83333333333333" height="81.83333333333333" fill="#ffffff"/><rect x="327.33" y="327.33" width="40.92" height="40.92" fill="#2353d9"/><path d="M 327.33 368.25 A 40.92 40.92 0 0 1  368.25 327.33 L 368.25 368.25" fill="#a2adcf"/><rect x="368.25" y="327.33" width="40.92" height="40.92" fill="#d2d7e7"/><path d="M 368.25 327.33 A 40.92 40.92 0 0 1 409.17 368.25 L 368.25 368.25" fill="#eceef5"/><rect x="327.33" y="368.25" width="40.92" height="40.92" fill="#4f65a4"/><path d="M 327.33 368.25 A 40.92 40.92 0 0 0 368.25 409.17 L 368.25 368.25" fill="#2454d9"/><rect x="368.25" y="368.25" width="40.92" height="40.92" fill="#6587e4"/><path d="M 368.25 409.17 A 40.92 40.92 0 0 0 409.17 368.25 L 368.25 368.25" fill="#6083e4"/><rect x="409.16666666666663" y="327.3333333333333" width="81.83333333333333" height="81.83333333333333" fill="#ffffff"/><rect x="409.17" y="327.33" width="40.92" height="40.92" fill="#6687e5"/><polygon points="450.09000000000003,327.33 450.09000000000003,368.25 409.17,368.25" fill="#ebedf4"/><rect x="450.08" y="327.33" width="40.92" height="40.92" fill="#5c70aa"/><polygon points="450.08,327.33 491,368.25 450.08,368.25" fill="#2a4590"/><rect x="409.17" y="368.25" width="40.92" height="40.92" fill="#3a64dd"/><polygon points="409.17,368.25 450.09000000000003,368.25 409.17,409.17" fill="#436cdf"/><rect x="450.08" y="368.25" width="40.92" height="40.92" fill="#c8d4f6"/><polygon points="450.08,368.25 491,368.25 491,409.17" fill="#5e72ac"/><rect x="491" y="327.3333333333333" width="81.83333333333333" height="81.83333333333333" fill="#ffffff"/><rect x="491" y="327.33" width="40.92" height="40.92" fill="#bdcbf4"/><polygon points="531.92,327.33 531.92,368.25 491,368.25" fill="#5166a4"/><rect x="531.92" y="327.33" width="40.92" height="40.92" fill="#2252d9"/><polygon points="531.92,327.33 572.8399999999999,327.33 531.92,368.25" fill="#475e9f"/><rect x="491" y="368.25" width="40.92" height="40.92" fill="#2a4590"/><polygon points="491,368.25 531.92,368.25 531.92,409.17" fill="#cad5f6"/><rect x="531.92" y="368.25" width="40.92" height="40.92" fill="#1e4fd8"/><polygon points="531.92,368.25 572.8399999999999,409.17 531.92,409.17" fill="#7e8ebc"/><rect x="572.8333333333333" y="327.3333333333333" width="81.83333333333333" height="81.83333333333333" fill="#ffffff"/><rect x="572.83" y="327.33" width="40.92" height="40.92" fill="#7e8ebc"/><polygon points="613.75,327.33 613.75,368.25 572.83,368.25" fill="#4960a0"/><rect x="613.75" y="327.33" width="40.92" height="40.92" fill="#2252d9"/><polygon points="613.75,327.33 654.67,368.25 613.75,368.25" fill="#577be2"/><rect x="572.83" y="368.25" width="40.92" height="40.92" fill="#2b4591"/><polygon points="572.83,368.25 613.75,368.25 613.75,409.17" fill="#bec6dd"/><rect x="613.75" y="368.25" width="40.92" height="40.92" fill="#b4c5f2"/><polygon points="613.75,368.25 654.67,368.25 613.75,409.17" fill="#8ea7ec"/><rect x="654.6666666666666" y="327.3333333333333" width="81.83333333333333" height="81.83333333333333" fill="#ffffff"/><rect x="654.67" y="327.33" width="40.92" height="40.92" fill="#fdfdfe"/><polygon points="695.5899999999999,327.33 695.5899999999999,368.25 654.67,368.25" fill="#586da8"/><rect x="695.58" y="327.33" width="40.92" height="40.92" fill="#1f4fd8"/><polygon points="695.58,327.33 736.5,368.25 695.58,368.25" fill="#6788e5"/><rect x="654.67" y="368.25" width="40.92" height="40.92" fill="#c5cce1"/><polygon points="654.67,368.25 695.5899999999999,368.25 654.67,409.17" fill="#475e9f"/><rect x="695.58" y="368.25" width="40.92" height="40.92" fill="#7c98e8"/><polygon points="695.58,368.25 736.5,368.25 736.5,409.17" fill="#233e8d"/><rect x="736.5" y="327.33" width="81.83" height="81.83" fill="#4a71e0"/><polygon points="736.5,327.33 818.33,327.33 736.5,409.15999999999997" fill="#8393bf"/><rect x="818.33" y="327.33" width="81.83" height="81.83" fill="#6578af"/><rect x="818.33" y="327.33" width="81.83" height="81.83" fill="#2352d9"/><rect x="0" y="409.17" width="81.83" height="81.83" fill="#3e569b"/><path d="M 0 409.17 A 81.83 81.83 0 0 1 81.83 491 L 0 491" fill="#c8cfe3"/><rect x="81.83" y="409.17" width="81.83" height="81.83" fill="#426bde"/><path d="M 81.83 409.17 A 81.83 81.83 0 0 0 163.66 491 L 163.66 409.17" fill="#233e8d"/><rect x="163.66666666666666" y="409.16666666666663" width="81.83333333333333" height="81.83333333333333" fill="#ffffff"/><rect x="163.67" y="409.17" width="40.92" height="40.92" fill="#5177e1"/><path d="M 163.67 450.09000000000003 A 40.92 40.92 0 0 1  204.58999999999997 409.17 L 204.58999999999997 450.09000000000003" fill="#6788e5"/><rect x="204.58" y="409.17" width="40.92" height="40.92" fill="#5a7ee3"/><path d="M 204.58 409.17 A 40.92 40.92 0 0 1 245.5 450.09000000000003 L 204.58 450.09000000000003" fill="#a3aecf"/><rect x="163.67" y="450.08" width="40.92" height="40.92" fill="#8e9cc4"/><path d="M 163.67 450.08 A 40.92 40.92 0 0 0 204.58999999999997 491 L 204.58999999999997 450.08" fill="#aabcf0"/><rect x="204.58" y="450.08" width="40.92" height="40.92" fill="#e0e7fa"/><path d="M 204.58 491 A 40.92 40.92 0 0 0 245.5 450.08 L 204.58 450.08" fill="#597de2"/><rect x="245.5" y="409.16666666666663" width="81.83333333333333" height="81.83333333333333" fill="#ffffff"/><rect x="245.5" y="409.17" width="40.92" height="40.92" fill="#7190e6"/><path d="M 245.5 409.17 A 40.92 40.92 0 0 0 286.42 450.09000000000003 L 286.42 409.17" fill="#c0cdf4"/><rect x="286.42" y="409.17" width="40.92" height="40.92" fill="#6788e5"/><path d="M 286.42 450.09000000000003 A 40.92 40.92 0 0 0 327.34000000000003 409.17 L 286.42 409.17" fill="#adb8d5"/><rect x="245.5" y="450.08" width="40.92" height="40.92" fill="#708fe6"/><path d="M 245.5 491 A 40.92 40.92 0 0 1  286.42 450.08 L 286.42 491" fill="#c3cae0"/><rect x="286.42" y="450.08" width="40.92" height="40.92" fill="#86a0ea"/><path d="M 286.42 450.08 A 40.92 40.92 0 0 1 327.34000000000003 491 L 286.42 491" fill="#8393bf"/><rect x="327.33" y="409.17" width="81.83" height="81.83" fill="#1f4fd8"/><polygon points="327.33,409.17 409.15999999999997,491 327.33,491" fill="#6385e4"/><rect x="409.17" y="409.17" width="81.83" height="81.83" fill="#d5def8"/><polygon points="409.17,409.17 491,409.17 491,491" fill="#8e9cc4"/><rect x="491" y="409.17" width="81.83" height="81.83" fill="#b7c0da"/><rect x="491" y="409.17" width="81.83" height="81.83" fill="#d7e0f8"/><rect x="572.83" y="409.17" width="81.83" height="81.83" fill="#5267a5"/><rect x="572.83" y="409.17" width="81.83" height="81.83" fill="#426bde"/><rect x="654.6666666666666" y="409.16666666666663" width="81.83333333333333" height="81.83333333333333" fill="#ffffff"/><rect x="654.67" y="409.17" width="40.92" height="40.92" fill="#325edc"/><path d="M 654.67 409.17 A 40.92 40.92 0 0 0 695.5899999999999 450.09000000000003 L 695.5899999999999 409.17" fill="#5378e1"/><rect x="695.58" y="409.17" width="40.92" height="40.92" fill="#849fea"/><path d="M 695.58 450.09000000000003 A 40.92 40.92 0 0 0 736.5 409.17 L 695.58 409.17" fill="#6e8ee6"/><rect x="654.67" y="450.08" width="40.92" height="40.92" fill="#7687b8"/><path d="M 654.67 491 A 40.92 40.92 0 0 1  695.5899999999999 450.08 L 695.5899999999999 491" fill="#e3e9fa"/><rect x="695.58" y="450.08" width="40.92" height="40.92" fill="#7b8bba"/><path d="M 695.58 450.08 A 40.92 40.92 0 0 1 736.5 491 L 695.58 491" fill="#7586b7"/><rect x="736.5" y="409.17" width="81.83" height="81.83" fill="#6c8ce6"/><rect x="736.5" y="409.17" width="81.83" height="81.83" fill="#d0daf7"/><rect x="818.33" y="409.17" width="81.83" height="81.83" fill="#dde2ee"/><polygon points="818.33,409.17 900.1600000000001,409.17 818.33,491" fill="#3560dc"/></g></svg>